<svg  height="3000" viewBox="0 0 3000 3000" fill="none" xmlns="http://www.w3.org/2000/svg">
  <rect y="45" width="100%" height="3500" fill="#FF9D00"/>
  <path fill-rule="evenodd" clip-rule="evenodd" d="M382.748 184.886C413.407 213.839 474.3 212.895 485.245 253.617C495.574 292.049 451.637 322.911 428.551 355.307C405.001 388.353 389.91 439.517 349.577 443.993C307.888 448.619 285.316 394.051 247.749 375.369C218.26 360.705 177.925 371.601 155.497 347.48C132.387 322.625 136.318 284.632 132.073 250.963C127.068 211.271 106.939 167.577 128.572 133.938C150.284 100.175 196.841 92.3938 236.762 88.1714C271.228 84.5259 306.453 92.9194 335.355 112.067C360.102 128.462 361.164 164.503 382.748 184.886Z" fill="white"/>
  <path fill-rule="evenodd" clip-rule="evenodd" d="M1247.38 1141.24C1250.35 1169.92 1240.59 1198.79 1221.37 1220.22C1204.37 1239.19 1176.51 1237.28 1152.85 1246.66C1118.26 1260.37 1087.91 1300.58 1053.3 1286.87C1018.16 1272.95 1004.27 1226.27 1005.87 1188.44C1007.24 1155.76 1043.16 1139.33 1060.69 1111.76C1079.15 1082.72 1077.18 1036.73 1109.59 1025.32C1142.82 1013.61 1177.88 1038.24 1204.89 1060.96C1228.95 1081.21 1244.14 1109.93 1247.38 1141.24Z" fill="white"/>
  </svg>
  